<?xml version="1.0" encoding="UTF-8"?>
<svg width="46px" height="46px" viewBox="0 0 46 46" version="1.1" xmlns="http://www.w3.org/2000/svg" xmlns:xlink="http://www.w3.org/1999/xlink">
    <!-- Generator: Sketch 55.1 (78136) - https://sketchapp.com -->
    <title>appicon</title>
    <desc>Created with Sketch.</desc>
    <g id="Page-1" stroke="none" stroke-width="1" fill="none" fill-rule="evenodd">
        <g id="6.2-Navigation,-Anonymous-User" transform="translate(-20.000000, -1427.000000)">
            <g id="Group-4" transform="translate(0.000000, 1412.000000)">
                <g id="appicon" transform="translate(20.000000, 15.000000)">
                    <rect id="Rectangle" fill="#FFFFFF" x="0" y="0" width="46" height="46" rx="5"></rect>
                    <path d="M30.0317559,13.0334081 C27.3295969,13.0334081 24.6670464,14.1534691 22.9889165,16.5916338 C22.9881692,16.5908864 22.9876087,16.5901391 22.9868614,16.5893918 C22.9556603,16.6355394 22.9210963,16.6882262 22.8852245,16.7439023 C22.5965682,17.1835192 22.3396734,17.6647999 22.1188374,18.1877441 C21.9467646,18.5881263 21.7840335,19.0395137 21.657361,19.5323779 C21.6566137,19.5346199 21.6560532,19.5368619 21.6554927,19.5391039 C21.6554927,19.5391039 21.6554927,19.5392907 21.6554927,19.5392907 C21.630644,19.6358831 21.6071031,19.7337834 21.5844963,19.8320573 C21.5082687,20.1502331 21.4436246,20.4801794 21.3909378,20.8224566 C21.1740252,22.1360762 21.1192833,23.3037795 21.1181623,23.2869646 C21.0230646,26.1200932 19.263102,28.5384536 16.4225001,28.5210781 C14.1956431,28.5072525 12.0082078,27.0587399 11.1166429,25.0222652 L7.05733233,27.0871384 C8.26427053,29.9542705 11.4770429,32.7724525 16.5680427,32.7724525 C23.0356247,32.7724525 24.9153468,27.49817 25.2314675,23.2520269 C25.2697681,22.9047052 25.2893856,22.6771432 25.2893856,22.6771432 C25.4590295,19.8740946 27.0592502,17.6789991 30.0113911,17.4861879 C31.8354372,17.4977716 33.6372502,18.532637 34.7092953,20.0562563 L38.6942465,18.0151109 C36.8283499,15.0388685 33.4309871,13.0334081 30.0317559,13.0334081" id="Fill-1" fill="#231F20"></path>
                    <path d="M15.2690708,17.4861132 C12.1205688,17.6897607 10.5950812,20.0262884 10.5864869,23.0548438 C10.5864869,23.3352795 10.6111488,23.6106706 10.6582306,23.8797095 L6.62414241,25.9458905 C6.2984933,24.8740323 6.13333333,23.728562 6.13333333,22.5487145 C6.13333333,16.5762388 10.5782662,13.0333333 15.1283859,13.0333333 C17.7627247,13.0333333 20.3169123,14.1657253 22.1899085,15.9445579 L17.8935074,18.1861747 C17.0813464,17.7465578 16.1778242,17.491905 15.2690708,17.4861132" id="Fill-4" fill="#1E9FD9"></path>
                    <path d="M28.2646003,27.7756724 C29.1531759,28.2612501 30.1523563,28.5403779 31.1354691,28.5465434 C34.0145585,28.5644793 35.6736314,26.031217 35.6906332,23.1128927 C35.6947435,22.3810697 35.5305177,21.6763373 35.2398063,21.0274679 L39.212987,18.9924879 C39.8037515,20.2128781 40.1452814,21.560688 40.1452814,22.9791206 C40.1452814,28.4579848 35.5572348,32.8993679 30.0226945,32.8993679 C27.8862644,32.8993679 25.7270408,31.8523583 24.0806725,30.1400381 C24.9961519,29.6406348 28.3012195,27.8378876 28.3012195,27.8378876 L28.2646003,27.7756724 Z" id="Fill-7" fill="#E94B3D"></path>
                </g>
            </g>
        </g>
    </g>
</svg>